/* XPM */
static char *peless[] = {
/* columns rows colors chars-per-pixel */
"32 32 70 1",
"  c black",
". c #028002800280",
"X c #031103110311",
"o c #07BC07BC07BC",
"O c #086F086F086F",
"+ c #0C570C570C57",
"@ c #0D710D710D71",
"# c #146F146F146F",
"$ c #15DB15DB15DB",
"% c #17AA17AA17AA",
"& c #1FB71FB71FB7",
"* c #23BF23BF23BF",
"= c #248424842484",
"- c #258025802580",
"; c #2CA02CA02CA0",
": c #30B130B130B1",
"> c #47E647E647E6",
", c #49C349C349C3",
"< c #4C354C354C35",
"1 c #55B755B755B7",
"2 c #565856585658",
"3 c #590759075907",
"4 c #5A425A425A42",
"5 c #5BA85BA85BA8",
"6 c #5D1A5D1A5D1A",
"7 c #5E035E035E03",
"8 c #5F0B5F0B5F0B",
"9 c #5FD35FD35FD3",
"0 c #66C066C066C0",
"q c #67C667C667C6",
"w c #6A0F6A0F6A0F",
"e c #6B4A6B4A6B4A",
"r c #6CFE6CFE6CFE",
"t c #6FC06FC06FC0",
"y c #70CA70CA70CA",
"u c #72E572E572E5",
"i c #745B745B745B",
"p c #76BE76BE76BE",
"a c #7B997B997B99",
"s c #7CC87CC87CC8",
"d c #806E806E806E",
"f c #818B818B818B",
"g c #870287028702",
"h c #879287928792",
"j c #8A518A518A51",
"k c #8AD58AD58AD5",
"l c #8EA18EA18EA1",
"z c #900B900B900B",
"x c #912291229122",
"c c #91ED91ED91ED",
"v c #93EF93EF93EF",
"b c #951095109510",
"n c #962C962C962C",
"m c #976397639763",
"M c #97F397F397F3",
"N c #9B509B509B50",
"B c #9C0C9C0C9C0C",
"V c #A061A061A061",
"C c #A0C0A0C0A0C0",
"Z c #A1F8A1F8A1F8",
"A c #A3E3A3E3A3E3",
"S c #A78EA78EA78E",
"D c #BA9EBA9EBA9E",
"F c #BB85BB85BB85",
"G c #CBACCBACCBAC",
"H c #D356D356D356",
"J c #D45AD45AD45A",
"K c #D5BCD5BCD5BC",
"L c #D804D804D804",
"P c None",
/* pixels */
"PPPPPPPPPPPPPPPPPPPPPPPPPPPPPPPP",
"PP                            PP",
"P                              P",
"P  %puuuuuuuaggggggggggggggd%  P",
"P  dB<999492tKJJJJJJJJJJJJJKd  P",
"P  lntSBAAAl4DDDDGJJJGJJJJJKg  P",
"P  9qtABABAn2424,wllllllkllc9  P",
"P  o%uAABABAABAAt%PPPPPPPPPPo  P",
"P  PPuAABAABBABAuPPPPPPPPPPPP  P",
"P  PPtABABBAAAAAtPPPPPPPPPPPP  P",
"P  PPuAAAAAAABAAtPPPPPPPPPPPP  P",
"P  PPtABBBABBABAuPPPPPPPPPPPP  P",
"P  PPuAAABABABBStPPPPPPPPPPPP  P",
"P  PPtSBBABAASASuPPPPPPPPPPPP  P",
"P  PPtAAAABNtwqw,OPPPPPPPPPPP  P",
"P  PPuABABAn;--&     PPPPPPPP  P",
"P  PPtAABAABNnnd@PPPPPPPPPPPP  P",
"P  PPtAAAABABBAk@PPPPPPPPPPPP  P",
"P  PPuSBBAABAAAk@PPPPPPPPPPPP  P",
"P  PPqccccccclcd@PPPPPPPPPPPP  P",
"P  PP-;;;;;;;;;- PPPPPPPPPPPP  P",
"P  PPPPPPPPPPPPP PPPPPPPPPPPP  P",
"P  PPPPPPPPPPPPP PPPPPPPPPPPP  P",
"P  PPPPPPPPPPPPP PPPPPPPPPPPP  P",
"P  PPPPPPPPPPPPP PPPPPPPPPPPP  P",
"P  PPPPPPPPPPPPPPPPPPPPPPPPPP  P",
"P  PPPPPPPPPPPPPPPPPPPPPPPPPP  P",
"P  PPPPPPPPPPPPPPPPPPPPPPPPPP  P",
"P   PPPPPPPPPPPPPPPPPPPPPPPP   P",
"P                              P",
"PP                            PP",
"PPPPPPPPPPPPPPPPPPPPPPPPPPPPPPPP"
};
